<?xml version="1.0" encoding="utf-8"?>
<!-- Generator: Adobe Illustrator 24.0.1, SVG Export Plug-In . SVG Version: 6.00 Build 0)  -->
<svg version="1.1" id="Isolation_v1" xmlns="http://www.w3.org/2000/svg" xmlns:xlink="http://www.w3.org/1999/xlink" x="0px"
	 y="0px" viewBox="0 0 294 135.3" style="enable-background:new 0 0 294 135.3;" xml:space="preserve">
<style type="text/css">
	.st0{fill:#0000CC;}
	.st1{fill:#FF0000;}
	.st2{fill:#FF6D70;}
	.st3{fill:#08AACD;}
</style>
<g>
	<g>
		<g>
			<polygon class="st0" points="182.2,105.2 194.4,105.2 194.4,59.2 182.2,52.1 			"/>
			<path class="st0" d="M72.9,40.7c-9.1,0-17.2,5-21.3,12.6c-4.1-7.4-12.1-12.6-21.3-12.6c-7.3,0-13.8,3.2-18.2,8.2v-7.4H0v63.8
				h12.1v-38c0-8.4,6.8-15.2,15.2-15.2s15.2,6.8,15.2,15.2v38h12.1v-38c0-8.4,6.8-15.2,15.2-15.2S85,58.9,85,67.3v38h12.1V65
				C97.2,51.5,86.3,40.7,72.9,40.7z"/>
			<path class="st0" d="M255.1,24.1V48c-5.6-4.6-12.8-7.3-20.5-7.3c-18.1,0-32.7,14.6-32.7,32.7s14.6,32.7,32.7,32.7
				c7.7,0,14.9-2.7,20.5-7.3v6.5h12.1V17.2L255.1,24.1z M234.6,93.9c-11.4,0-20.5-9.1-20.5-20.5s9.1-20.5,20.5-20.5
				c11.4,0,20.5,9.1,20.5,20.5C255.1,84.6,246,93.9,234.6,93.9z"/>
			<path class="st0" d="M157.9,38.1V48c-5.6-4.6-12.8-7.3-20.5-7.3c-18.1,0-32.7,14.6-32.7,32.7s14.6,32.7,32.7,32.7
				c7.7,0,14.9-2.7,20.5-7.3v3.9c0,11.4-9.1,20.5-20.5,20.5c-7.4,0-14-3.9-17.6-9.9l-10.5,5.9c5.6,9.6,16.1,16.1,28.1,16.1
				c18.1,0,32.7-14.6,32.7-32.7V45.1L157.9,38.1z M137.4,93.9c-11.4,0-20.5-9.1-20.5-20.5s9.1-20.5,20.5-20.5s20.5,9.1,20.5,20.5
				C157.9,84.6,148.8,93.9,137.4,93.9z"/>
		</g>
		<g>
			<polygon class="st1" points="172.1,15.2 157.9,21.1 194.4,42.1 206.5,35.1 			"/>
			<polygon class="st2" points="182.2,35.1 194.4,42.1 267.3,0 			"/>
		</g>
	</g>
	<path class="st3" d="M293.4,135.3c-0.3,0-0.6-0.2-0.6-0.5V0.6c0-0.3,0.3-0.6,0.6-0.6c0.2,0,0.6,0.3,0.6,0.6v134.3
		C293.9,135.2,293.6,135.3,293.4,135.3z"/>
</g>
</svg>
